<?xml version="1.0" encoding="utf-8"?>
<!-- Generator: Adobe Illustrator 18.1.1, SVG Export Plug-In . SVG Version: 6.00 Build 0)  -->
<svg version="1.1" xmlns="http://www.w3.org/2000/svg" xmlns:xlink="http://www.w3.org/1999/xlink" x="0px" y="0px"
	 viewBox="-1919 1457 256 199" enable-background="new -1919 1457 256 199" xml:space="preserve">
<g id="Layer_2">
	<g id="Round-in">
		
			<ellipse fill="#003A70" stroke="#FFA400" stroke-width="10" stroke-miterlimit="10" cx="-1835.5" cy="1526.3" rx="76.8" ry="76.7"/>
	</g>
</g>
<g id="Layer_1">
	<g>
		<g transform="translate(138.880182, 0.000000)">
			<path fill="#FFFFFF" d="M-1951.1,1523.9h-13.2v-6.8c0-5.4-4.5-9.9-9.9-9.9s-9.9,4.5-9.9,9.9v6.8h-13.2v-6.8
				c0-12.8,10.5-23.1,23.1-23.1c12.8,0,23.1,10.5,23.1,23.1V1523.9z"/>
			<path fill="#FFFFFF" d="M-1945.7,1523.9h-57.2c-2.5,0-4.5,2-4.5,4.5v42.2c0,2.5,2,4.5,4.5,4.5h57.2c2.5,0,4.5-2,4.5-4.5v-42.2
				C-1941.4,1525.9-1943.3,1523.9-1945.7,1523.9z M-1971.5,1551.7v5.7c0,1.5-1.3,2.9-2.9,2.9c-1.5,0-2.9-1.3-2.9-2.9v-5.7
				c-1.8-1-2.9-2.9-2.9-5.2c0-3.2,2.6-5.9,5.9-5.9c3.2,0,5.9,2.6,5.9,5.9C-1968.4,1548.7-1969.7,1550.7-1971.5,1551.7z"/>
			<path fill="#FFFFFF" d="M-2008.7,1517.6h-13.8c-2.2,0-4-1.8-4-4s1.8-4,4-4h13.8c2.2,0,4,1.8,4,4S-2006.5,1517.6-2008.7,1517.6z"
				/>
			<path fill="#FFFFFF" d="M-1999,1495.9c-0.8,0-1.8-0.3-2.5-1l-10.9-8.9c-1.7-1.4-2-3.9-0.6-5.7c1.4-1.7,3.9-2,5.7-0.6l10.9,8.9
				c1.7,1.4,2,3.9,0.6,5.7C-1996.7,1495.3-1997.9,1495.9-1999,1495.9z"/>
			<path fill="#FFFFFF" d="M-1974.3,1486.4c-2.2,0-4-1.8-4-4v-13.9c0-2.2,1.8-4,4-4s4,1.8,4,4v13.9
				C-1970.3,1484.6-1972.1,1486.4-1974.3,1486.4z"/>
			<path fill="#FFFFFF" d="M-1949.8,1495.9c-1.1,0-2.4-0.6-3.1-1.5c-1.4-1.7-1.1-4.3,0.6-5.7l10.9-8.9c1.7-1.4,4.3-1.1,5.7,0.6
				s1.1,4.3-0.6,5.7l-10.9,8.9C-1947.9,1495.6-1948.8,1495.9-1949.8,1495.9z"/>
			<path fill="#FFFFFF" d="M-1926.2,1517.6h-13.9c-2.2,0-4-1.8-4-4s1.8-4,4-4h13.9c2.2,0,4,1.8,4,4S-1924,1517.6-1926.2,1517.6z"/>
		</g>
	</g>
</g>
<g id="Layer_4">
	<g id="Layer_5">
		<g>
			<path fill="#FFA400" stroke="#003A70" stroke-width="3" stroke-miterlimit="10" d="M-1921.5,1445.2c15.3,9.7,29,14.2,40.9,13.2
				c2.1,41.8-13.4,66.5-40.7,76.8c-26.4-9.6-42-33.3-40.9-77.4C-1948.3,1458.5-1934.7,1455.5-1921.5,1445.2L-1921.5,1445.2z
				 M-1921.4,1450.4c13.5,8.6,25.7,12.6,36.2,11.7c1.8,37-11.8,58.8-36,67.9c-23.4-8.5-37.2-29.4-36.2-68.5
				C-1945.2,1462.1-1933.1,1459.4-1921.4,1450.4L-1921.4,1450.4z"/>
		</g>
	</g>
	
		<text transform="matrix(1 0 0 1 -1948.6876 1495.8982)" fill="#FFFFFF" font-family="'TimesNewRomanPS-BoldMT'" font-size="30.8271">SSL</text>
	<path fill="#003A70" d="M-2156.2,1536.7v-46.3h11.1v36.5h17.8v9.7H-2156.2z M-2090.5,1520.8v1.3v1.3h-23.5c0.1,0.9,0.4,1.7,0.9,2.4
		s1,1.4,1.7,1.9c0.7,0.6,1.6,1,2.4,1.3c0.9,0.3,1.9,0.4,2.7,0.4c1.7,0,3.1-0.3,4.3-1c1.1-0.6,2.1-1.4,2.8-2.4l7.4,4.7
		c-1.6,2.3-3.6,3.9-6,5.2c-2.4,1.1-5.4,1.9-8.7,1.9c-2.4,0-4.7-0.4-6.8-1.1s-4-1.9-5.7-3.3c-1.6-1.4-2.8-3.3-3.8-5.4
		s-1.4-4.6-1.4-7.3c0-2.7,0.4-5,1.4-7.2c0.9-2.1,2.1-4,3.7-5.4s3.4-2.7,5.6-3.4c2.1-0.9,4.4-1.3,6.8-1.3s4.6,0.4,6.6,1.1
		c2,0.9,3.7,2,5.1,3.4c1.4,1.6,2.6,3.4,3.3,5.6C-2091,1515.6-2090.5,1518-2090.5,1520.8z M-2100.4,1516.8c0-1.7-0.6-3.2-1.6-4.4
		c-1-1.3-2.7-1.9-4.8-1.9c-1,0-2,0.1-2.8,0.4c-0.9,0.3-1.6,0.7-2.3,1.3s-1.1,1.3-1.6,2s-0.6,1.6-0.7,2.4h13.8V1516.8z
		 M-2073.4,1512.2v12.5c0,1.6,0.3,2.7,0.9,3.4s1.6,1.1,3.1,1.1c0.6,0,1.1,0,1.7-0.1c0.6-0.1,1.1-0.3,1.4-0.4l0.1,7.9
		c-0.7,0.3-1.7,0.4-2.8,0.7c-1.1,0.1-2.3,0.3-3.4,0.3c-2.1,0-4-0.3-5.4-0.9c-1.4-0.6-2.7-1.3-3.6-2.3s-1.6-2.3-1.9-3.7
		s-0.6-3-0.6-4.7v-13.7h-5.3v-8h5.1v-8.6h10.5v8.6h7.6v8H-2073.4L-2073.4,1512.2z M-2056.1,1489.5c-3.1,0-5.7,2.3-5.7,5.3
		c0,3.2,2.1,5.2,5.3,5.2c0.3,0,0.6,0,0.7-0.1c-0.6,2.3-2.7,4-4.8,4.3h-0.4v5h0.6c2.6-0.3,5-1.4,6.8-3.2c2.4-2.3,3.7-5.7,3.7-9.7
		C-2049.9,1492.4-2052.5,1489.5-2056.1,1489.5z M-2031.4,1513.7c-0.9-0.9-1.9-1.6-3-2.1c-1.1-0.6-2.4-0.9-3.7-0.9
		c-1,0-1.9,0.1-2.7,0.6c-0.9,0.4-1.3,1-1.3,2c0,0.9,0.4,1.6,1.4,2c1,0.4,2.4,0.9,4.6,1.3c1.3,0.3,2.4,0.6,3.7,1.1
		c1.3,0.6,2.3,1.1,3.3,1.9s1.9,1.7,2.4,2.9c0.6,1.1,0.9,2.4,0.9,4c0,2-0.4,3.7-1.3,5.2s-1.9,2.6-3.3,3.4c-1.3,0.9-2.8,1.4-4.4,1.9
		c-1.7,0.4-3.3,0.6-5,0.6c-2.7,0-5.3-0.4-7.7-1.3c-2.6-0.9-4.7-2.1-6.3-3.7l6-6.3c1,1,2.1,1.9,3.6,2.6s2.8,1,4.4,1
		c0.9,0,1.7-0.1,2.6-0.6c0.9-0.4,1.3-1.1,1.3-2.1c0-1-0.6-1.7-1.6-2.3c-1-0.4-2.7-1-4.8-1.4c-1.1-0.3-2.3-0.6-3.4-1
		c-1.1-0.4-2.1-1-3-1.7c-0.9-0.7-1.6-1.7-2.1-2.7c-0.6-1.1-0.9-2.4-0.9-3.9c0-2,0.4-3.6,1.3-5s1.9-2.4,3.1-3.3
		c1.3-0.9,2.7-1.6,4.3-1.9c1.6-0.4,3.1-0.6,4.7-0.6c2.4,0,4.8,0.4,7.1,1.1s4.3,1.9,5.8,3.4L-2031.4,1513.7z M-2156.2,1585.7v-46.3
		h30.9v9.5h-20.2v8.7h19.1v8.9h-19.1v9.6h21.4v9.6H-2156.2z M-2096.1,1585.7v-17.8c0-0.9-0.1-1.7-0.3-2.6c-0.1-0.9-0.4-1.6-0.7-2.1
		s-0.9-1.1-1.4-1.4c-0.6-0.4-1.4-0.6-2.4-0.6s-1.9,0.1-2.6,0.6c-0.7,0.4-1.3,0.9-1.9,1.6c-0.4,0.7-0.9,1.4-1.1,2.3
		c-0.3,0.9-0.4,1.7-0.4,2.6v17.6h-10.7v-32.5h10.3v4.4h0.1c0.4-0.7,0.9-1.4,1.6-2c0.6-0.7,1.4-1.3,2.1-1.7c0.9-0.4,1.7-0.9,2.7-1.1
		c1-0.3,2-0.4,3.1-0.4c2.1,0,4,0.4,5.6,1.1s2.7,1.9,3.7,3c1,1.3,1.6,2.7,2,4.3c0.4,1.6,0.6,3.2,0.6,4.9v20h-10.3V1585.7z
		 M-2057.9,1563.6c-0.6-0.7-1.4-1.4-2.4-1.9c-1-0.4-2.1-0.7-3.1-0.7c-1.1,0-2.1,0.3-3,0.7c-0.9,0.4-1.7,1-2.3,1.9s-1.1,1.6-1.6,2.6
		c-0.4,1-0.6,2-0.6,3.2c0,1.1,0.1,2.1,0.6,3.2c0.3,1,0.9,1.9,1.6,2.6c0.7,0.7,1.4,1.4,2.4,1.9c1,0.4,2,0.7,3.1,0.7
		c1.1,0,2.1-0.1,3.3-0.6c1-0.4,1.9-1,2.6-1.9l5.8,7.3c-1.3,1.3-3.1,2.3-5.1,3c-2.1,0.7-4.4,1.1-6.7,1.1c-2.6,0-5-0.4-7.1-1.1
		c-2.3-0.7-4.1-1.9-5.8-3.4c-1.6-1.4-2.8-3.3-3.8-5.4s-1.4-4.6-1.4-7.3c0-2.7,0.4-5,1.4-7.2s2.3-4,3.8-5.4s3.6-2.7,5.8-3.4
		c2.3-0.9,4.6-1.1,7.1-1.1c1.1,0,2.3,0.1,3.4,0.3c1.1,0.3,2.3,0.6,3.3,0.9c1,0.4,2,0.9,3,1.4c0.9,0.6,1.7,1.1,2.3,1.9
		L-2057.9,1563.6z M-2026.9,1562.1c-0.4-0.1-1-0.3-1.4-0.3h-1.3c-1.4,0-2.6,0.3-3.6,0.7c-1,0.6-1.7,1.1-2.3,1.9s-1,1.6-1.3,2.4
		c-0.3,0.9-0.4,1.6-0.4,2.3v16.6h-10.7v-32.5h10.3v4.7h0.1c0.9-1.7,2-3,3.6-4s3.3-1.6,5.3-1.6h1.3c0.4,0,0.7,0.1,1,0.1
		L-2026.9,1562.1z M-2001.8,1590.6c-0.7,1.7-1.4,3.2-2.1,4.6c-0.9,1.3-1.7,2.4-2.8,3.4c-1.1,1-2.4,1.6-3.8,2.1
		c-1.4,0.4-3.3,0.7-5.3,0.7c-1,0-2,0-3.1-0.1c-1-0.1-2-0.3-2.7-0.6l1.1-9c0.6,0.1,1.1,0.3,1.7,0.4s1.1,0.1,1.7,0.1
		c1.7,0,2.8-0.4,3.6-1.1c0.7-0.7,1.4-1.9,1.9-3.3l1-2.7l-13.5-31.9h11.8l7.3,20.9h0.1l6.4-20.9h11.3L-2001.8,1590.6z
		 M-1948.5,1569.4c0,2.3-0.3,4.4-1,6.6s-1.7,3.9-3,5.6c-1.3,1.6-3,2.9-4.8,3.9s-4.1,1.4-6.6,1.4c-2,0-3.8-0.4-5.7-1.1
		c-1.7-0.9-3.1-1.9-4.1-3.3h-0.1v19.3h-10.7v-48.1h10.1v4h0.1c1-1.3,2.4-2.4,4.1-3.4c1.7-1,3.8-1.4,6.3-1.4c2.3,0,4.4,0.4,6.4,1.4
		c1.9,0.9,3.6,2.1,4.8,3.7c1.3,1.6,2.3,3.4,3,5.4C-1948.9,1564.9-1948.5,1567.1-1948.5,1569.4z M-1958.9,1569.4c0-1-0.1-2-0.4-3
		c-0.3-1-0.9-1.9-1.4-2.6c-0.6-0.7-1.4-1.4-2.4-1.9c-1-0.4-2-0.7-3.3-0.7c-1.3,0-2.3,0.3-3.3,0.7c-1,0.4-1.7,1.1-2.4,1.9
		c-0.7,0.7-1.1,1.7-1.6,2.7c-0.4,1-0.6,2-0.6,3c0,1,0.1,2,0.6,3c0.4,1,0.9,1.9,1.6,2.7c0.7,0.7,1.4,1.4,2.4,1.9c1,0.4,2,0.7,3.3,0.7
		c1.3,0,2.4-0.3,3.3-0.7c1-0.4,1.7-1.1,2.4-1.9c0.6-0.7,1.1-1.7,1.4-2.7C-1959,1571.4-1958.9,1570.4-1958.9,1569.4z M-1931.6,1561.2
		v12.5c0,1.6,0.3,2.7,0.9,3.4s1.6,1.1,3.1,1.1c0.6,0,1.1,0,1.7-0.1c0.6-0.1,1.1-0.3,1.4-0.4l0.1,7.9c-0.7,0.3-1.7,0.4-2.8,0.7
		c-1.1,0.1-2.3,0.3-3.4,0.3c-2.1,0-4-0.3-5.4-0.9c-1.4-0.6-2.7-1.3-3.6-2.3c-0.9-1-1.6-2.3-1.9-3.7s-0.6-3-0.6-4.7v-13.7h-5.1v-8
		h5.1v-8.6h10.4v8.6h7.6v8H-1931.6L-1931.6,1561.2z"/>
	
		<text transform="matrix(0.9475 0 0 1 -2162.2168 1486.6167)" fill="#003A70" stroke="#FFFFFF" stroke-width="0.25" stroke-miterlimit="10" font-family="'TimesNewRomanPS-BoldMT'" font-size="72.4217">secure</text>
</g>
</svg>
